<?xml version="1.0" encoding="UTF-8" standalone="no"?>
<!DOCTYPE svg PUBLIC "-//W3C//DTD SVG 1.1//EN" "http://www.w3.org/Graphics/SVG/1.1/DTD/svg11.dtd">
<svg version="1.1" xmlns="http://www.w3.org/2000/svg" xmlns:xlink="http://www.w3.org/1999/xlink" preserveAspectRatio="xMidYMid meet" viewBox="0 0 100 90" width="100" height="90"><defs><path d="M97.05 70.01L97.18 70.02L97.31 70.04L97.43 70.07L97.56 70.09L97.68 70.13L97.8 70.16L97.92 70.21L98.04 70.25L98.15 70.3L98.26 70.36L98.37 70.42L98.48 70.48L98.58 70.55L98.68 70.62L98.78 70.69L98.88 70.77L98.97 70.86L99.06 70.94L99.14 71.03L99.23 71.12L99.31 71.22L99.38 71.32L99.45 71.42L99.52 71.52L99.58 71.63L99.64 71.74L99.7 71.85L99.75 71.96L99.79 72.08L99.84 72.2L99.87 72.32L99.91 72.44L99.93 72.57L99.96 72.69L99.98 72.82L99.99 72.95L100 73.08L100 73.21L100 86.79L100 86.92L99.99 87.05L99.98 87.18L99.96 87.31L99.93 87.43L99.91 87.56L99.87 87.68L99.84 87.8L99.79 87.92L99.75 88.04L99.7 88.15L99.64 88.26L99.58 88.37L99.52 88.48L99.45 88.58L99.38 88.68L99.31 88.78L99.23 88.88L99.14 88.97L99.06 89.06L98.97 89.14L98.88 89.23L98.78 89.31L98.68 89.38L98.58 89.45L98.48 89.52L98.37 89.58L98.26 89.64L98.15 89.7L98.04 89.75L97.92 89.79L97.8 89.84L97.68 89.87L97.56 89.91L97.43 89.93L97.31 89.96L97.18 89.98L97.05 89.99L96.92 90L96.79 90L3.21 90L3.08 90L2.95 89.99L2.82 89.98L2.69 89.96L2.57 89.93L2.44 89.91L2.32 89.87L2.2 89.84L2.08 89.79L1.96 89.75L1.85 89.7L1.74 89.64L1.63 89.58L1.52 89.52L1.42 89.45L1.32 89.38L1.22 89.31L1.12 89.23L1.03 89.14L0.94 89.06L0.86 88.97L0.77 88.88L0.69 88.78L0.62 88.68L0.55 88.58L0.48 88.48L0.42 88.37L0.36 88.26L0.3 88.15L0.25 88.04L0.21 87.92L0.16 87.8L0.13 87.68L0.09 87.56L0.07 87.43L0.04 87.31L0.02 87.18L0.01 87.05L0 86.92L0 86.79L0 73.21L0 73.08L0.01 72.95L0.02 72.82L0.04 72.69L0.07 72.57L0.09 72.44L0.13 72.32L0.16 72.2L0.21 72.08L0.25 71.96L0.3 71.85L0.36 71.74L0.42 71.63L0.48 71.52L0.55 71.42L0.62 71.32L0.69 71.22L0.77 71.12L0.86 71.03L0.94 70.94L1.03 70.86L1.12 70.77L1.22 70.69L1.32 70.62L1.42 70.55L1.52 70.48L1.63 70.42L1.74 70.36L1.85 70.3L1.96 70.25L2.08 70.21L2.2 70.16L2.32 70.13L2.44 70.09L2.57 70.07L2.69 70.04L2.82 70.02L2.95 70.01L3.08 70L3.21 70L96.79 70L96.92 70L97.05 70.01ZM97.05 35.01L97.18 35.02L97.31 35.04L97.43 35.07L97.56 35.09L97.68 35.13L97.8 35.16L97.92 35.21L98.04 35.25L98.15 35.3L98.26 35.36L98.37 35.42L98.48 35.48L98.58 35.55L98.68 35.62L98.78 35.69L98.88 35.77L98.97 35.86L99.06 35.94L99.14 36.03L99.23 36.12L99.31 36.22L99.38 36.32L99.45 36.42L99.52 36.52L99.58 36.63L99.64 36.74L99.7 36.85L99.75 36.96L99.79 37.08L99.84 37.2L99.87 37.32L99.91 37.44L99.93 37.57L99.96 37.69L99.98 37.82L99.99 37.95L100 38.08L100 38.21L100 51.79L100 51.92L99.99 52.05L99.98 52.18L99.96 52.31L99.93 52.43L99.91 52.56L99.87 52.68L99.84 52.8L99.79 52.92L99.75 53.04L99.7 53.15L99.64 53.26L99.58 53.37L99.52 53.48L99.45 53.58L99.38 53.68L99.31 53.78L99.23 53.88L99.14 53.97L99.06 54.06L98.97 54.14L98.88 54.23L98.78 54.31L98.68 54.38L98.58 54.45L98.48 54.52L98.37 54.58L98.26 54.64L98.15 54.7L98.04 54.75L97.92 54.79L97.8 54.84L97.68 54.87L97.56 54.91L97.43 54.93L97.31 54.96L97.18 54.98L97.05 54.99L96.92 55L96.79 55L3.21 55L3.08 55L2.95 54.99L2.82 54.98L2.69 54.96L2.57 54.93L2.44 54.91L2.32 54.87L2.2 54.84L2.08 54.79L1.96 54.75L1.85 54.7L1.74 54.64L1.63 54.58L1.52 54.52L1.42 54.45L1.32 54.38L1.22 54.31L1.12 54.23L1.03 54.14L0.94 54.06L0.86 53.97L0.77 53.88L0.69 53.78L0.62 53.68L0.55 53.58L0.48 53.48L0.42 53.37L0.36 53.26L0.3 53.15L0.25 53.04L0.21 52.92L0.16 52.8L0.13 52.68L0.09 52.56L0.07 52.43L0.04 52.31L0.02 52.18L0.01 52.05L0 51.92L0 51.79L0 38.21L0 38.08L0.01 37.95L0.02 37.82L0.04 37.69L0.07 37.57L0.09 37.44L0.13 37.32L0.16 37.2L0.21 37.08L0.25 36.96L0.3 36.85L0.36 36.74L0.42 36.63L0.48 36.52L0.55 36.42L0.62 36.32L0.69 36.22L0.77 36.12L0.86 36.03L0.94 35.94L1.03 35.86L1.12 35.77L1.22 35.69L1.32 35.62L1.42 35.55L1.52 35.48L1.63 35.42L1.74 35.36L1.85 35.3L1.96 35.25L2.08 35.21L2.2 35.16L2.32 35.13L2.44 35.09L2.57 35.07L2.69 35.04L2.82 35.02L2.95 35.01L3.08 35L3.21 35L96.79 35L96.92 35L97.05 35.01ZM97.05 0.01L97.18 0.02L97.31 0.04L97.43 0.07L97.56 0.09L97.68 0.13L97.8 0.16L97.92 0.21L98.04 0.25L98.15 0.3L98.26 0.36L98.37 0.42L98.48 0.48L98.58 0.55L98.68 0.62L98.78 0.69L98.88 0.77L98.97 0.86L99.06 0.94L99.14 1.03L99.23 1.12L99.31 1.22L99.38 1.32L99.45 1.42L99.52 1.52L99.58 1.63L99.64 1.74L99.7 1.85L99.75 1.96L99.79 2.08L99.84 2.2L99.87 2.32L99.91 2.44L99.93 2.57L99.96 2.69L99.98 2.82L99.99 2.95L100 3.08L100 3.21L100 16.79L100 16.92L99.99 17.05L99.98 17.18L99.96 17.31L99.93 17.43L99.91 17.56L99.87 17.68L99.84 17.8L99.79 17.92L99.75 18.04L99.7 18.15L99.64 18.26L99.58 18.37L99.52 18.48L99.45 18.58L99.38 18.68L99.31 18.78L99.23 18.88L99.14 18.97L99.06 19.06L98.97 19.14L98.88 19.23L98.78 19.31L98.68 19.38L98.58 19.45L98.48 19.52L98.37 19.58L98.26 19.64L98.15 19.7L98.04 19.75L97.92 19.79L97.8 19.84L97.68 19.87L97.56 19.91L97.43 19.93L97.31 19.96L97.18 19.98L97.05 19.99L96.92 20L96.79 20L3.21 20L3.08 20L2.95 19.99L2.82 19.98L2.69 19.96L2.57 19.93L2.44 19.91L2.32 19.87L2.2 19.84L2.08 19.79L1.96 19.75L1.85 19.7L1.74 19.64L1.63 19.58L1.52 19.52L1.42 19.45L1.32 19.38L1.22 19.31L1.12 19.23L1.03 19.14L0.94 19.06L0.86 18.97L0.77 18.88L0.69 18.78L0.62 18.68L0.55 18.58L0.48 18.48L0.42 18.37L0.36 18.26L0.3 18.15L0.25 18.04L0.21 17.92L0.16 17.8L0.13 17.68L0.09 17.56L0.07 17.43L0.04 17.31L0.02 17.18L0.01 17.05L0 16.92L0 16.79L0 3.21L0 3.08L0.01 2.95L0.02 2.82L0.04 2.69L0.07 2.57L0.09 2.44L0.13 2.32L0.16 2.2L0.21 2.08L0.25 1.96L0.3 1.85L0.36 1.74L0.42 1.63L0.48 1.52L0.55 1.42L0.62 1.32L0.69 1.22L0.77 1.12L0.86 1.03L0.94 0.94L1.03 0.86L1.12 0.77L1.22 0.69L1.32 0.62L1.42 0.55L1.52 0.48L1.63 0.42L1.74 0.36L1.85 0.3L1.96 0.25L2.08 0.21L2.2 0.16L2.32 0.13L2.44 0.09L2.57 0.07L2.69 0.04L2.82 0.02L2.95 0.01L3.08 0L3.21 0L96.79 0L96.92 0L97.05 0.01Z" id="c8txPX62E"></path></defs><g><g><g><use xlink:href="#c8txPX62E" opacity="1" fill="#000000" fill-opacity="1"></use></g></g></g></svg>